<svg width="17" height="10" viewBox="0 0 17 10" fill="none" xmlns="http://www.w3.org/2000/svg">
<path fill-rule="evenodd" clip-rule="evenodd" d="M8.48878 8.17462C8.58027 8.36799 8.53985 8.60612 8.37356 8.75778C8.16954 8.94387 7.85329 8.92933 7.6672 8.72531L0.928361 1.33694C0.742272 1.13292 0.756813 0.816667 0.960836 0.630579C1.16486 0.444491 1.48111 0.459031 1.6672 0.663055L8.24641 7.87641C8.19617 7.70638 8.23814 7.5149 8.37233 7.38071L14.7363 1.01675C14.9316 0.821491 15.2481 0.821491 15.4434 1.01675C15.6387 1.21202 15.6387 1.5286 15.4434 1.72386L9.07944 8.08782C8.9195 8.24776 8.67817 8.27669 8.48878 8.17462Z" fill="#00475D"/>
<path d="M8.37356 8.75779L8.03662 8.38837L8.03662 8.38837L8.37356 8.75779ZM8.48878 8.17463L8.03681 8.38847L7.3856 7.01209L8.72599 7.73448L8.48878 8.17463ZM7.6672 8.72531L8.03662 8.38837L7.6672 8.72531ZM0.928361 1.33695L1.29778 1V1L0.928361 1.33695ZM0.960836 0.630585L0.623894 0.261167L0.623895 0.261166L0.960836 0.630585ZM1.6672 0.663061L1.29778 1L1.29778 1L1.6672 0.663061ZM8.24641 7.87642L8.72592 7.73472L7.877 8.21336L8.24641 7.87642ZM8.37233 7.38072L8.01878 7.02717L8.37233 7.38072ZM14.7363 1.01676L14.3827 0.663205V0.663205L14.7363 1.01676ZM15.4434 1.01676L15.797 0.663205L15.797 0.663205L15.4434 1.01676ZM15.4434 1.72387L15.797 2.07742L15.797 2.07742L15.4434 1.72387ZM9.07944 8.08783L9.43299 8.44138L9.07944 8.08783ZM8.03662 8.38837L8.03681 8.38847L8.94074 7.96079C9.12354 8.34713 9.04363 8.82337 8.71051 9.12721L8.03662 8.38837ZM8.03662 8.38837L8.03662 8.38837L8.71051 9.12721C8.30246 9.49939 7.66996 9.4703 7.29778 9.06226L8.03662 8.38837ZM1.29778 1L8.03662 8.38837L7.29778 9.06226L0.558943 1.67389L1.29778 1ZM1.29778 1V1L0.558943 1.67389C0.186765 1.26584 0.215848 0.633342 0.623894 0.261167L1.29778 1ZM1.29778 1V1L0.623895 0.261166C1.03194 -0.11101 1.66444 -0.0819293 2.03662 0.326119L1.29778 1ZM7.877 8.21336L1.29778 1L2.03662 0.326119L8.61583 7.53948L7.877 8.21336ZM8.72588 7.73427L8.72592 7.73472L7.76691 8.01811C7.66684 7.67946 7.74992 7.29602 8.01878 7.02717L8.72588 7.73427ZM15.0898 1.37031L8.72588 7.73427L8.01878 7.02717L14.3827 0.663205L15.0898 1.37031ZM15.0898 1.37031H15.0898L14.3827 0.663205C14.7733 0.272681 15.4064 0.272681 15.797 0.663205L15.0898 1.37031ZM15.0898 1.37031V1.37031L15.797 0.663205C16.1875 1.05373 16.1875 1.68689 15.797 2.07742L15.0898 1.37031ZM8.72588 7.73427L15.0898 1.37031L15.797 2.07742L9.43299 8.44138L8.72588 7.73427ZM8.72599 7.73448L8.72588 7.73427L9.43299 8.44138C9.11259 8.76178 8.63 8.81873 8.25156 8.61478L8.72599 7.73448Z" fill="#0D6986"/>
</svg>
