<svg width="10" height="17" viewBox="0 0 10 17" fill="none" xmlns="http://www.w3.org/2000/svg">
<path fill-rule="evenodd" clip-rule="evenodd" d="M8.66271 8.10065C8.8559 8.00917 9.09375 8.04962 9.24524 8.21599C9.43117 8.42016 9.41662 8.73666 9.21274 8.92291L1.83625 15.6618C1.63238 15.848 1.31638 15.8335 1.13046 15.6293C0.944531 15.4251 0.959083 15.1086 1.16296 14.9224L8.36404 8.34379C8.19426 8.39385 8.00316 8.3518 7.8692 8.21763L1.51604 1.85424C1.32094 1.65882 1.32094 1.34198 1.51604 1.14656C1.71115 0.951145 2.02748 0.951145 2.22258 1.14656L8.57574 7.50996C8.73543 7.6699 8.76442 7.91117 8.66271 8.10065Z" fill="#00475D"/>
<path d="M9.24524 8.21599L9.61493 7.87934V7.87934L9.24524 8.21599ZM8.66271 8.10065L8.87669 8.55255L7.50367 9.2027L8.22217 7.86417L8.66271 8.10065ZM9.21274 8.92291L9.54998 9.29206L9.21274 8.92291ZM1.83625 15.6618L1.49901 15.2926H1.49901L1.83625 15.6618ZM1.13046 15.6293L0.760768 15.966L0.760767 15.966L1.13046 15.6293ZM1.16296 14.9224L1.5002 15.2915L1.5002 15.2915L1.16296 14.9224ZM8.36404 8.34379L8.2226 7.86421L8.70127 8.71293L8.36404 8.34379ZM7.8692 8.21763L8.22304 7.86436H8.22304L7.8692 8.21763ZM1.51604 1.85424L1.16221 2.20751H1.16221L1.51604 1.85424ZM1.51604 1.14656L1.16221 0.793296L1.16221 0.793296L1.51604 1.14656ZM2.22258 1.14656L2.57642 0.793295L2.57642 0.793296L2.22258 1.14656ZM8.57574 7.50996L8.2219 7.86323V7.86322L8.57574 7.50996ZM8.87556 8.55263C8.87496 8.55198 8.87504 8.55221 8.87568 8.55256C8.87616 8.55283 8.87642 8.55287 8.87633 8.55285C8.87566 8.55272 8.87568 8.55303 8.87669 8.55255L8.44873 7.64875C8.83516 7.46577 9.31134 7.54595 9.61493 7.87934L8.87556 8.55263ZM8.8755 8.55376C8.87619 8.55314 8.87589 8.55329 8.87563 8.55387C8.87551 8.55412 8.87566 8.55388 8.8757 8.55321C8.87573 8.55253 8.8756 8.55228 8.87569 8.55254C8.8759 8.55314 8.87618 8.55332 8.87556 8.55263L9.61493 7.87934C9.98657 8.28746 9.9575 8.91977 9.54998 9.29206L8.8755 8.55376ZM1.49901 15.2926L8.8755 8.55376L9.54998 9.29206L2.17349 16.0309L1.49901 15.2926ZM1.50014 15.2927C1.50076 15.2933 1.50053 15.293 1.49974 15.2926C1.49927 15.2924 1.49923 15.2924 1.49959 15.2925C1.49994 15.2925 1.49991 15.2924 1.49942 15.2926C1.4986 15.2929 1.49833 15.2932 1.49901 15.2926L2.17349 16.0309C1.76551 16.4036 1.13283 16.3745 0.760768 15.966L1.50014 15.2927ZM1.5002 15.2915C1.49951 15.2922 1.49981 15.292 1.50007 15.2914C1.50019 15.2912 1.50004 15.2914 1.5 15.2921C1.49997 15.2928 1.5001 15.293 1.50001 15.2927C1.4998 15.2921 1.49952 15.292 1.50014 15.2927L0.760767 15.966C0.38913 15.5578 0.4182 14.9255 0.825721 14.5532L1.5002 15.2915ZM8.70127 8.71293L1.5002 15.2915L0.82572 14.5532L8.0268 7.97464L8.70127 8.71293ZM8.22304 7.86436L8.2226 7.86421L8.50547 8.82337C8.16685 8.92323 7.78381 8.83978 7.51537 8.5709L8.22304 7.86436ZM1.86988 1.50097L8.22304 7.86436L7.51537 8.5709L1.16221 2.20751L1.86988 1.50097ZM1.86988 1.49983C1.86923 1.50049 1.86951 1.50033 1.86975 1.49974C1.86986 1.49948 1.86971 1.49973 1.86971 1.5004C1.86971 1.50108 1.86986 1.50132 1.86975 1.50107C1.86951 1.50048 1.86923 1.50032 1.86988 1.50097L1.16221 2.20751C0.772217 1.81689 0.772217 1.18391 1.16221 0.793296L1.86988 1.49983ZM1.86874 1.49983C1.86809 1.49918 1.86835 1.49956 1.86915 1.49989C1.86963 1.50008 1.86967 1.5 1.86931 1.5C1.86896 1.5 1.869 1.50008 1.86947 1.49989C1.87028 1.49956 1.87053 1.49918 1.86988 1.49983L1.16221 0.793296C1.55264 0.402235 2.18599 0.402235 2.57642 0.793295L1.86874 1.49983ZM8.2219 7.86322L1.86874 1.49983L2.57642 0.793296L8.92958 7.15669L8.2219 7.86322ZM8.22217 7.86417L8.2219 7.86323L8.92958 7.15669C9.24937 7.47699 9.30625 7.95895 9.10326 8.33712L8.22217 7.86417Z" fill="#0D6986"/>
</svg>
