<svg width="21" height="23" viewBox="0 0 21 23" fill="none" xmlns="http://www.w3.org/2000/svg">
<path d="M19.25 0.25H16.75C16.4185 0.25 16.1005 0.381696 15.8661 0.616116C15.6317 0.850537 15.5 1.16848 15.5 1.5V22.74H20.5V1.5C20.5 1.16848 20.3683 0.850537 20.1339 0.616116C19.8995 0.381696 19.5815 0.25 19.25 0.25ZM11.75 7.75H9.25C8.91848 7.75 8.60054 7.8817 8.36612 8.11612C8.1317 8.35054 8 8.66848 8 9V22.74H13V9C13 8.66848 12.8683 8.35054 12.6339 8.11612C12.3995 7.8817 12.0815 7.75 11.75 7.75ZM4.25 15.25H1.75C1.41848 15.25 1.10054 15.3817 0.866116 15.6161C0.631696 15.8505 0.5 16.1685 0.5 16.5V22.74H5.5V16.5C5.5 16.1685 5.3683 15.8505 5.13388 15.6161C4.89946 15.3817 4.58152 15.25 4.25 15.25Z" fill="#0D6986"/>
</svg>
