<svg width="100" height="100" viewBox="0 0 100 100" fill="none" xmlns="http://www.w3.org/2000/svg">
<circle cx="50" cy="50" r="50" fill="#EBF5F7"/>
<circle cx="49.5" cy="49.5" r="37.5" fill="url(#paint0_linear_1_7079)"/>
<path d="M66.25 36.25H33.75C33.0586 36.25 32.5 36.8086 32.5 37.5V62.5C32.5 63.1914 33.0586 63.75 33.75 63.75H66.25C66.9414 63.75 67.5 63.1914 67.5 62.5V37.5C67.5 36.8086 66.9414 36.25 66.25 36.25ZM64.6875 40.5781V60.9375H35.3125V40.5781L34.2344 39.7383L35.7695 37.7656L37.4414 39.0664H62.5625L64.2344 37.7656L65.7695 39.7383L64.6875 40.5781Z" fill="#0D6986"/>
<path d="M62.5625 39.0625L50 48.8281L37.4375 39.0625L35.7656 37.7617L34.2305 39.7344L35.3086 40.5742L48.6523 50.9492C49.0361 51.2473 49.5082 51.4092 49.9941 51.4092C50.4801 51.4092 50.9522 51.2473 51.3359 50.9492L64.6875 40.5781L65.7656 39.7383L64.2305 37.7656L62.5625 39.0625Z" fill="#0D6986"/>
<defs>
<linearGradient id="paint0_linear_1_7079" x1="49.5" y1="12" x2="49.5" y2="87" gradientUnits="userSpaceOnUse">
<stop stop-color="#8EC7D2" stop-opacity="0.17"/>
<stop offset="1" stop-color="#8EC7D2" stop-opacity="0.27"/>
</linearGradient>
</defs>
</svg>
