<svg width="11" height="17" viewBox="0 0 11 17" fill="none" xmlns="http://www.w3.org/2000/svg">
<path fill-rule="evenodd" clip-rule="evenodd" d="M8.97424 8.10065C9.16742 8.00917 9.40527 8.04962 9.55677 8.21599C9.74269 8.42016 9.72814 8.73666 9.52427 8.92291L2.14777 15.6618C1.9439 15.848 1.6279 15.8335 1.44198 15.6293C1.25605 15.4251 1.27061 15.1086 1.47448 14.9224L8.67556 8.34379C8.50578 8.39385 8.31468 8.3518 8.18073 8.21763L1.82757 1.85424C1.63246 1.65882 1.63246 1.34198 1.82757 1.14656C2.02267 0.951145 2.339 0.951145 2.5341 1.14656L8.88727 7.50996C9.04695 7.6699 9.07594 7.91117 8.97424 8.10065Z" fill="#00475D"/>
<path d="M9.55677 8.21599L9.92646 7.87934V7.87934L9.55677 8.21599ZM8.97424 8.10065L9.18822 8.55255L7.8152 9.2027L8.53369 7.86417L8.97424 8.10065ZM9.52427 8.92291L9.8615 9.29206L9.52427 8.92291ZM2.14777 15.6618L1.81054 15.2926H1.81054L2.14777 15.6618ZM1.44198 15.6293L1.07229 15.966L1.07229 15.966L1.44198 15.6293ZM1.47448 14.9224L1.81172 15.2915L1.81172 15.2915L1.47448 14.9224ZM8.67556 8.34379L8.53413 7.86421L9.0128 8.71293L8.67556 8.34379ZM8.18073 8.21763L8.53457 7.86436H8.53457L8.18073 8.21763ZM1.82757 1.85424L1.47373 2.20751H1.47373L1.82757 1.85424ZM1.82757 1.14656L1.47373 0.793296L1.47373 0.793296L1.82757 1.14656ZM2.5341 1.14656L2.88794 0.793295L2.88794 0.793296L2.5341 1.14656ZM8.88727 7.50996L8.53343 7.86323V7.86322L8.88727 7.50996ZM9.18708 8.55263C9.18649 8.55198 9.18656 8.55221 9.1872 8.55256C9.18769 8.55283 9.18794 8.55287 9.18785 8.55285C9.18719 8.55272 9.1872 8.55303 9.18822 8.55255L8.76025 7.64875C9.14669 7.46577 9.62286 7.54595 9.92646 7.87934L9.18708 8.55263ZM9.18703 8.55376C9.18771 8.55314 9.18742 8.55329 9.18715 8.55387C9.18703 8.55412 9.18719 8.55388 9.18722 8.55321C9.18725 8.55253 9.18712 8.55228 9.18721 8.55254C9.18742 8.55314 9.1877 8.55332 9.18708 8.55263L9.92646 7.87934C10.2981 8.28746 10.269 8.91977 9.8615 9.29206L9.18703 8.55376ZM1.81054 15.2926L9.18703 8.55376L9.8615 9.29206L2.48501 16.0309L1.81054 15.2926ZM1.81167 15.2927C1.81229 15.2933 1.81205 15.293 1.81126 15.2926C1.8108 15.2924 1.81075 15.2924 1.81111 15.2925C1.81146 15.2925 1.81143 15.2924 1.81095 15.2926C1.81013 15.2929 1.80986 15.2932 1.81054 15.2926L2.48501 16.0309C2.07703 16.4036 1.44435 16.3745 1.07229 15.966L1.81167 15.2927ZM1.81172 15.2915C1.81104 15.2922 1.81133 15.292 1.8116 15.2914C1.81171 15.2912 1.81156 15.2914 1.81153 15.2921C1.8115 15.2928 1.81163 15.293 1.81154 15.2927C1.81132 15.2921 1.81105 15.292 1.81167 15.2927L1.07229 15.966C0.700653 15.5578 0.729724 14.9255 1.13724 14.5532L1.81172 15.2915ZM9.0128 8.71293L1.81172 15.2915L1.13724 14.5532L8.33832 7.97464L9.0128 8.71293ZM8.53457 7.86436L8.53413 7.86421L8.81699 8.82337C8.47838 8.92323 8.09534 8.83978 7.82689 8.5709L8.53457 7.86436ZM2.1814 1.50097L8.53457 7.86436L7.82689 8.5709L1.47373 2.20751L2.1814 1.50097ZM2.1814 1.49983C2.18075 1.50049 2.18104 1.50033 2.18128 1.49974C2.18138 1.49948 2.18124 1.49973 2.18124 1.5004C2.18124 1.50108 2.18138 1.50132 2.18128 1.50107C2.18104 1.50048 2.18075 1.50032 2.1814 1.50097L1.47373 2.20751C1.08374 1.81689 1.08374 1.18391 1.47373 0.793296L2.1814 1.49983ZM2.18027 1.49983C2.17962 1.49918 2.17987 1.49956 2.18068 1.49989C2.18115 1.50008 2.18119 1.5 2.18084 1.5C2.18048 1.5 2.18052 1.50008 2.18099 1.49989C2.1818 1.49956 2.18205 1.49918 2.1814 1.49983L1.47373 0.793296C1.86416 0.402235 2.49751 0.402235 2.88794 0.793295L2.18027 1.49983ZM8.53343 7.86322L2.18027 1.49983L2.88794 0.793296L9.2411 7.15669L8.53343 7.86322ZM8.53369 7.86417L8.53343 7.86323L9.2411 7.15669C9.56089 7.47699 9.61777 7.95895 9.41478 8.33712L8.53369 7.86417Z" fill="#00475D"/>
</svg>
