<svg width="10" height="17" viewBox="0 0 10 17" fill="none" xmlns="http://www.w3.org/2000/svg">
<path fill-rule="evenodd" clip-rule="evenodd" d="M1.80409 8.10065C1.6109 8.00917 1.37305 8.04962 1.22155 8.21599C1.03563 8.42016 1.05018 8.73666 1.25406 8.92291L8.63055 15.6618C8.83442 15.848 9.15042 15.8335 9.33634 15.6293C9.52227 15.4251 9.50771 15.1086 9.30384 14.9224L2.10276 8.34379C2.27254 8.39385 2.46364 8.3518 2.59759 8.21763L8.95075 1.85424C9.14586 1.65882 9.14586 1.34198 8.95075 1.14656C8.75565 0.951145 8.43932 0.951145 8.24422 1.14656L1.89105 7.50996C1.73137 7.6699 1.70238 7.91117 1.80409 8.10065Z" fill="#00475D"/>
<path d="M1.22155 8.21599L0.851865 7.87934V7.87934L1.22155 8.21599ZM1.80409 8.10065L1.5901 8.55255L2.96312 9.2027L2.24463 7.86417L1.80409 8.10065ZM1.25406 8.92291L0.916817 9.29206L1.25406 8.92291ZM8.63055 15.6618L8.96779 15.2926H8.96778L8.63055 15.6618ZM9.33634 15.6293L9.70603 15.966L9.70603 15.966L9.33634 15.6293ZM9.30384 14.9224L8.9666 15.2915L8.9666 15.2915L9.30384 14.9224ZM2.10276 8.34379L2.24419 7.86421L1.76552 8.71293L2.10276 8.34379ZM2.59759 8.21763L2.95143 8.5709V8.5709L2.59759 8.21763ZM8.95075 1.85424L8.59692 1.50097L8.95075 1.85424ZM8.95075 1.14656L8.59692 1.49983L8.59692 1.49983L8.95075 1.14656ZM8.24422 1.14656L8.59805 1.49983V1.49983L8.24422 1.14656ZM1.89105 7.50996L2.24489 7.86323L2.24489 7.86322L1.89105 7.50996ZM1.59124 8.55263C1.59183 8.55198 1.59176 8.55221 1.59112 8.55256C1.59063 8.55283 1.59038 8.55287 1.59047 8.55285C1.59113 8.55272 1.59112 8.55303 1.5901 8.55255L2.01807 7.64875C1.63163 7.46577 1.15546 7.54595 0.851865 7.87934L1.59124 8.55263ZM1.59129 8.55376C1.59061 8.55314 1.5909 8.55329 1.59117 8.55387C1.59129 8.55412 1.59113 8.55388 1.5911 8.55321C1.59107 8.55253 1.5912 8.55228 1.59111 8.55254C1.5909 8.55314 1.59062 8.55332 1.59124 8.55263L0.851865 7.87934C0.480226 8.28746 0.509298 8.91977 0.916817 9.29206L1.59129 8.55376ZM8.96778 15.2926L1.59129 8.55376L0.916817 9.29206L8.29331 16.0309L8.96778 15.2926ZM8.96665 15.2927C8.96603 15.2933 8.96627 15.293 8.96706 15.2926C8.96752 15.2924 8.96757 15.2924 8.96721 15.2925C8.96686 15.2925 8.96689 15.2924 8.96737 15.2926C8.96819 15.2929 8.96846 15.2932 8.96779 15.2926L8.29331 16.0309C8.70129 16.4036 9.33397 16.3745 9.70603 15.966L8.96665 15.2927ZM8.9666 15.2915C8.96728 15.2922 8.96699 15.292 8.96672 15.2914C8.96661 15.2912 8.96676 15.2914 8.96679 15.2921C8.96682 15.2928 8.96669 15.293 8.96678 15.2927C8.967 15.2921 8.96728 15.292 8.96665 15.2927L9.70603 15.966C10.0777 15.5578 10.0486 14.9255 9.64108 14.5532L8.9666 15.2915ZM1.76552 8.71293L8.9666 15.2915L9.64108 14.5532L2.44 7.97464L1.76552 8.71293ZM2.24375 7.86436L2.24419 7.86421L1.96133 8.82337C2.29994 8.92323 2.68298 8.83978 2.95143 8.5709L2.24375 7.86436ZM8.59692 1.50097L2.24375 7.86436L2.95143 8.5709L9.30459 2.20751L8.59692 1.50097ZM8.59692 1.49983C8.59757 1.50049 8.59728 1.50033 8.59704 1.49974C8.59694 1.49948 8.59708 1.49973 8.59708 1.5004C8.59708 1.50108 8.59694 1.50132 8.59704 1.50107C8.59728 1.50048 8.59757 1.50032 8.59692 1.50097L9.30459 2.20751C9.69458 1.81689 9.69458 1.18391 9.30459 0.793296L8.59692 1.49983ZM8.59805 1.49983C8.5987 1.49918 8.59845 1.49956 8.59764 1.49989C8.59717 1.50008 8.59713 1.5 8.59748 1.5C8.59784 1.5 8.5978 1.50008 8.59733 1.49989C8.59652 1.49956 8.59627 1.49918 8.59692 1.49983L9.30459 0.793296C8.91416 0.402235 8.28081 0.402235 7.89038 0.793296L8.59805 1.49983ZM2.24489 7.86322L8.59805 1.49983L7.89038 0.793296L1.53722 7.15669L2.24489 7.86322ZM2.24463 7.86417L2.24489 7.86323L1.53722 7.15669C1.21743 7.47699 1.16055 7.95895 1.36354 8.33712L2.24463 7.86417Z" fill="#A3A0A7"/>
</svg>
