<svg width="25" height="25" viewBox="0 0 25 25" fill="none" xmlns="http://www.w3.org/2000/svg">
<path d="M21.82 8.65081C21.8095 7.86188 21.6618 7.08079 21.3835 6.34248C21.1422 5.71972 20.7737 5.15415 20.3014 4.68189C19.8292 4.20963 19.2636 3.84108 18.6408 3.59977C17.912 3.32619 17.142 3.17825 16.3637 3.16227C15.3617 3.11748 15.0439 3.10498 12.5002 3.10498C9.95645 3.10498 9.6304 3.10498 8.63561 3.16227C7.85765 3.17837 7.08806 3.3263 6.35957 3.59977C5.73671 3.84091 5.17105 4.2094 4.69877 4.68168C4.22649 5.15396 3.858 5.71962 3.61686 6.34248C3.34273 7.07074 3.19512 7.84051 3.1804 8.61852C3.13561 9.62165 3.12207 9.93936 3.12207 12.4831C3.12207 15.0269 3.12207 15.3519 3.1804 16.3477C3.19603 17.1269 3.3429 17.8956 3.61686 18.6258C3.8584 19.2485 4.22717 19.8139 4.69961 20.286C5.17205 20.7581 5.73776 21.1264 6.36061 21.3675C7.08711 21.6521 7.85683 21.8106 8.63665 21.8362C9.63978 21.881 9.95749 21.8946 12.5012 21.8946C15.045 21.8946 15.371 21.8946 16.3658 21.8362C17.1441 21.8209 17.9141 21.6733 18.6429 21.3998C19.2655 21.1582 19.8309 20.7895 20.3032 20.3173C20.7754 19.8451 21.144 19.2797 21.3856 18.6571C21.6596 17.9279 21.8064 17.1591 21.8221 16.3789C21.8669 15.3769 21.8804 15.0591 21.8804 12.5144C21.8783 9.97061 21.8783 9.64769 21.82 8.65081ZM12.4939 17.2935C9.83353 17.2935 7.67832 15.1383 7.67832 12.4779C7.67832 9.81748 9.83353 7.66227 12.4939 7.66227C13.7711 7.66227 14.996 8.16963 15.8991 9.07274C16.8022 9.97584 17.3096 11.2007 17.3096 12.4779C17.3096 13.7551 16.8022 14.98 15.8991 15.8831C14.996 16.7862 13.7711 17.2935 12.4939 17.2935ZM17.5012 8.60706C17.3537 8.6072 17.2077 8.57825 17.0714 8.52187C16.9351 8.46548 16.8112 8.38277 16.7069 8.27847C16.6026 8.17417 16.5199 8.05033 16.4635 7.91403C16.4071 7.77773 16.3782 7.63165 16.3783 7.48415C16.3783 7.33675 16.4074 7.1908 16.4638 7.05463C16.5202 6.91845 16.6028 6.79472 16.7071 6.69049C16.8113 6.58627 16.935 6.50359 17.0712 6.44719C17.2074 6.39078 17.3533 6.36175 17.5007 6.36175C17.6481 6.36175 17.7941 6.39078 17.9302 6.44719C18.0664 6.50359 18.1901 6.58627 18.2944 6.69049C18.3986 6.79472 18.4813 6.91845 18.5377 7.05463C18.5941 7.1908 18.6231 7.33675 18.6231 7.48415C18.6231 8.10498 18.121 8.60706 17.5012 8.60706Z" fill="#57628D"/>
<path d="M12.4938 15.6063C14.2215 15.6063 15.622 14.2058 15.622 12.4782C15.622 10.7506 14.2215 9.3501 12.4938 9.3501C10.7662 9.3501 9.36572 10.7506 9.36572 12.4782C9.36572 14.2058 10.7662 15.6063 12.4938 15.6063Z" fill="#57628D"/>
</svg>
