<svg width="18" height="18" viewBox="0 0 18 18" fill="none" xmlns="http://www.w3.org/2000/svg">
<path d="M16.7795 13.7117L13.0533 10.3237C12.8771 10.1636 12.6457 10.0782 12.4078 10.0856C12.1698 10.093 11.9441 10.1925 11.7782 10.3631L9.5846 12.6191C9.0566 12.5182 7.9951 12.1873 6.90244 11.0974C5.80977 10.0038 5.47885 8.93956 5.38077 8.41522L7.63485 6.22072C7.80573 6.05492 7.9054 5.82914 7.91275 5.59116C7.92011 5.35318 7.83458 5.12168 7.67427 4.94564L4.28719 1.22031C4.12681 1.04372 3.90391 0.936602 3.66583 0.921711C3.42774 0.90682 3.19324 0.985326 3.0121 1.14056L1.02294 2.84647C0.864455 3.00553 0.769863 3.21722 0.757104 3.44139C0.743354 3.67056 0.481187 9.09906 4.69052 13.3102C8.36269 16.9815 12.9625 17.2501 14.2294 17.2501C14.4145 17.2501 14.5282 17.2446 14.5584 17.2427C14.7826 17.2302 14.9942 17.1352 15.1524 16.976L16.8574 14.9859C17.0133 14.8053 17.0924 14.571 17.0778 14.3329C17.0633 14.0949 16.9562 13.8719 16.7795 13.7117V13.7117Z" fill="#57628D"/>
</svg>
