<svg width="23" height="23" viewBox="0 0 23 23" fill="none" xmlns="http://www.w3.org/2000/svg">
<path d="M11.5 0.5625C17.54 0.5625 22.4375 5.45996 22.4375 11.5C22.4375 17.54 17.54 22.4375 11.5 22.4375C5.45996 22.4375 0.5625 17.54 0.5625 11.5C0.5625 5.45996 5.45996 0.5625 11.5 0.5625ZM6.24365 8.80713C6.23633 8.92188 6.23633 9.0415 6.23633 9.15869C6.23633 12.7427 8.96582 16.8711 13.9536 16.8711C15.4917 16.8711 16.9175 16.4243 18.1187 15.6553C17.8989 15.6797 17.689 15.6895 17.4644 15.6895C16.1948 15.6895 15.0278 15.2598 14.0977 14.5322C15.2891 14.5078 16.29 13.7266 16.6318 12.6523C16.2144 12.7134 15.8384 12.7134 15.4087 12.6035C16.0222 12.4789 16.5735 12.1457 16.9692 11.6606C17.3648 11.1755 17.5804 10.5684 17.5791 9.94238V9.9082C17.2202 10.1108 16.7979 10.2354 16.356 10.2524C16.7274 10.0049 17.0321 9.66946 17.2429 9.27595C17.4537 8.88244 17.5642 8.443 17.5645 7.99658C17.5645 7.49121 17.4326 7.02979 17.1958 6.62939C16.5149 7.46762 15.6652 8.15318 14.702 8.64152C13.7388 9.12986 12.6836 9.41004 11.605 9.46387C11.9883 7.62061 10.6113 6.12891 8.95605 6.12891C8.1748 6.12891 7.47168 6.45605 6.97607 6.9834C6.36328 6.86865 5.77734 6.63916 5.25488 6.33154C5.45752 6.95898 5.88232 7.48877 6.44629 7.82324C5.89941 7.76465 5.37207 7.61328 4.88379 7.40088C5.25244 7.94287 5.71387 8.42383 6.24365 8.80713Z" fill="#4070F6"/>
</svg>
