<svg width="21" height="21" viewBox="0 0 21 21" fill="none" xmlns="http://www.w3.org/2000/svg">
<path d="M19.183 1.38623C19.183 1.38623 14.4726 14.66 12.2355 16.9758C11.7076 17.5435 11.0717 18.0002 10.3652 18.3192C9.65874 18.6383 8.89573 18.8134 8.12079 18.8342C7.34585 18.855 6.57454 18.7212 5.85193 18.4405C5.12932 18.1597 4.46991 17.7378 3.91223 17.1993C3.35456 16.6609 2.90981 16.0166 2.60398 15.3043C2.29815 14.5919 2.13738 13.8258 2.13105 13.0506C2.12473 12.2754 2.27298 11.5067 2.56714 10.7895C2.8613 10.0722 3.29547 9.42083 3.84428 8.87332C6.08137 6.55457 19.183 1.38623 19.183 1.38623V1.38623Z" stroke="#0D6986" stroke-width="2.5" stroke-linejoin="round"/>
</svg>
