<svg width="62" height="60" viewBox="0 0 62 60" fill="none" xmlns="http://www.w3.org/2000/svg">
<path d="M57.1319 27.7838C57.2106 28.5407 57.25 29.3325 57.25 30.1682C57.25 35.8425 55.2725 39.6575 53.3562 42.0463C52.5826 43.0163 51.6971 43.8915 50.7181 44.6538C50.3872 44.9088 50.0425 45.1454 49.6856 45.3625L49.6463 45.3844C49.2994 45.5721 49.0098 45.8502 48.808 46.189C48.6062 46.5279 48.4998 46.915 48.5 47.3094V53.0625C48.5 53.6427 48.2695 54.1991 47.8593 54.6093C47.4491 55.0196 46.8927 55.25 46.3125 55.25H44.125C44.125 54.0897 43.6641 52.9769 42.8436 52.1565C42.0231 51.336 40.9103 50.875 39.75 50.875H31C29.8397 50.875 28.7269 51.336 27.9064 52.1565C27.0859 52.9769 26.625 54.0897 26.625 55.25H24.4375C23.8573 55.25 23.3009 55.0196 22.8907 54.6093C22.4805 54.1991 22.25 53.6427 22.25 53.0625V50.4244C22.2505 49.8817 22.0494 49.3582 21.6855 48.9556C21.3217 48.553 20.8212 48.2999 20.2813 48.2457C19.588 48.0951 18.9089 47.8858 18.2512 47.62C16.5067 46.9161 14.9242 45.8636 13.6006 44.5269C11.6625 42.5582 10.4769 39.9682 9.83813 38.17C9.2125 36.3807 7.7775 34.7619 5.72563 34.1844C5.44484 34.1045 5.19772 33.9354 5.02168 33.7025C4.84564 33.4696 4.75027 33.1857 4.75 32.8938V29.42C4.74976 29.1444 4.83929 28.8762 5.00506 28.6559C5.17082 28.4357 5.4038 28.2755 5.66875 28.1994C7.79063 27.5913 9.20812 25.8763 9.8075 24.065C10.2975 22.5775 11.1638 20.67 12.5725 19.2394C14.1864 17.6282 16.051 16.2895 18.0938 15.2757C18.2644 15.1882 18.4 15.1269 18.4875 15.0875L18.575 15.0438L18.5925 15.0394C18.9863 14.8706 19.3218 14.5899 19.5574 14.2322C19.7931 13.8744 19.9185 13.4553 19.9181 13.0269V5.70316C20.8912 6.53316 21.9139 7.30313 22.9806 8.00879C24.3675 8.91879 25.9863 9.78066 27.6794 10.24C28.1781 8.80504 28.8606 7.44004 29.7094 6.18004H29.6831C28.4625 6.05316 26.9706 5.39254 25.3738 4.34691C23.9104 3.36306 22.5345 2.25501 21.2613 1.03504C20.7855 0.588772 20.1909 0.289436 19.549 0.173017C18.9072 0.0565976 18.2453 0.128051 17.6431 0.378786C17.0254 0.623579 16.4952 1.04783 16.1209 1.59682C15.7466 2.1458 15.5453 2.79434 15.5431 3.45879V11.6707C13.3125 12.873 11.2648 14.3874 9.46187 16.1682C7.375 18.2769 6.24188 20.9107 5.65563 22.6913C5.41063 23.4219 4.92062 23.8638 4.46562 23.9907C3.28713 24.328 2.25051 25.0399 1.51249 26.0186C0.774468 26.9974 0.375182 28.1898 0.375 29.4157V32.8938C0.375 35.4532 2.07687 37.6975 4.53562 38.3932C4.81542 38.4906 5.06824 38.6527 5.27351 38.8664C5.47878 39.08 5.63069 39.3391 5.71687 39.6225C6.44312 41.6875 7.89563 44.9732 10.4856 47.5982C12.5475 49.6824 15.0826 51.2374 17.875 52.1307V53.0625C17.875 54.803 18.5664 56.4722 19.7971 57.7029C21.0278 58.9336 22.697 59.625 24.4375 59.625H26.625C27.7853 59.625 28.8981 59.1641 29.7186 58.3436C30.5391 57.5232 31 56.4104 31 55.25H39.75C39.75 56.4104 40.2109 57.5232 41.0314 58.3436C41.8519 59.1641 42.9647 59.625 44.125 59.625H46.3125C48.053 59.625 49.7222 58.9336 50.9529 57.7029C52.1836 56.4722 52.875 54.803 52.875 53.0625V48.4994C54.3333 47.4394 55.6429 46.1887 56.7688 44.7807C59.2275 41.7182 61.625 36.9582 61.625 30.1682C61.625 27.3244 61.2225 24.7782 60.4437 22.5032C59.6638 24.4469 58.5422 26.2354 57.1319 27.7838V27.7838ZM56.3356 10.9532C57.4293 13.5924 57.6322 16.5163 56.9137 19.2813C56.1952 22.0463 54.5945 24.5015 52.3544 26.2744C50.53 27.7138 48.0319 27.6044 45.8881 26.7119L35.4319 22.385C33.2881 21.4969 31.4419 19.8082 31.1706 17.5025C30.8073 14.3578 31.5925 11.1877 33.3815 8.57608C35.1705 5.96443 37.8428 4.08707 40.9064 3.28976C43.97 2.49244 47.2185 2.82885 50.0537 4.23703C52.8888 5.64521 55.1198 8.03033 56.3356 10.9532V10.9532ZM49.6419 22.84C50.8393 21.8938 51.7686 20.651 52.3375 19.2349C52.9065 17.8187 53.0953 16.2784 52.8853 14.7668C52.6753 13.2551 52.0738 11.8246 51.1404 10.6172C50.207 9.40973 48.9742 8.46726 47.5642 7.88325C46.1542 7.29924 44.616 7.09399 43.1022 7.28785C41.5884 7.4817 40.1516 8.06794 38.9342 8.9884C37.7169 9.90887 36.7613 11.1316 36.1623 12.5353C35.5633 13.939 35.3417 15.4749 35.5194 16.9907C35.5281 17.0782 35.5631 17.24 35.8081 17.4982C36.1788 17.8657 36.6211 18.1532 37.1075 18.3425L47.5638 22.6738C48.0413 22.8871 48.5589 22.9959 49.0819 22.9932C49.4319 22.9844 49.5762 22.8925 49.6419 22.84V22.84ZM21.1562 26.8125C22.0265 26.8125 22.8611 26.4668 23.4764 25.8515C24.0918 25.2361 24.4375 24.4015 24.4375 23.5313C24.4375 22.661 24.0918 21.8264 23.4764 21.2111C22.8611 20.5957 22.0265 20.25 21.1562 20.25C20.286 20.25 19.4514 20.5957 18.8361 21.2111C18.2207 21.8264 17.875 22.661 17.875 23.5313C17.875 24.4015 18.2207 25.2361 18.8361 25.8515C19.4514 26.4668 20.286 26.8125 21.1562 26.8125Z" fill="#0D6986"/>
</svg>
