<svg width="36" height="38" viewBox="0 0 36 38" fill="none" xmlns="http://www.w3.org/2000/svg">
<path fill-rule="evenodd" clip-rule="evenodd" d="M22.9712 19.6948C22.6838 18.8823 22.1517 18.1789 21.448 17.6814C20.7444 17.1838 19.9038 16.9167 19.042 16.9167V15.875H16.9587V16.9167C15.8536 16.9167 14.7938 17.3557 14.0124 18.1371C13.231 18.9185 12.792 19.9783 12.792 21.0833C12.792 22.1884 13.231 23.2482 14.0124 24.0296C14.7938 24.811 15.8536 25.25 16.9587 25.25V29.4167C16.0524 29.4167 15.2805 28.8385 14.993 28.0281C14.9504 27.8955 14.8816 27.7728 14.7907 27.6673C14.6998 27.5618 14.5886 27.4756 14.4638 27.4137C14.339 27.3519 14.2031 27.3157 14.0641 27.3074C13.925 27.299 13.7857 27.3186 13.6544 27.365C13.5231 27.4114 13.4024 27.4836 13.2995 27.5775C13.1966 27.6713 13.1135 27.7849 13.0553 27.9114C12.997 28.0379 12.9647 28.1748 12.9603 28.314C12.9559 28.4532 12.9794 28.5919 13.0295 28.7219C13.3168 29.5343 13.849 30.2378 14.5526 30.7353C15.2563 31.2328 16.0969 31.5 16.9587 31.5V32.5417H19.042V31.5C20.1471 31.5 21.2069 31.061 21.9883 30.2796C22.7697 29.4982 23.2087 28.4384 23.2087 27.3333C23.2087 26.2283 22.7697 25.1685 21.9883 24.3871C21.2069 23.6057 20.1471 23.1667 19.042 23.1667V19C19.4728 18.9999 19.8931 19.1334 20.245 19.382C20.5968 19.6307 20.8629 19.9824 21.0066 20.3885C21.0986 20.6491 21.2903 20.8624 21.5396 20.9815C21.663 21.0405 21.7968 21.0746 21.9334 21.0819C22.07 21.0892 22.2067 21.0695 22.3357 21.024C22.4647 20.9784 22.5835 20.9079 22.6852 20.8164C22.787 20.725 22.8697 20.6144 22.9287 20.491C22.9877 20.3675 23.0218 20.2337 23.0291 20.0971C23.0364 19.9605 23.0167 19.8238 22.9712 19.6948ZM16.9587 19C16.4061 19 15.8762 19.2195 15.4855 19.6102C15.0948 20.0009 14.8753 20.5308 14.8753 21.0833C14.8753 21.6359 15.0948 22.1658 15.4855 22.5565C15.8762 22.9472 16.4061 23.1667 16.9587 23.1667V19ZM19.042 29.4167C19.5945 29.4167 20.1244 29.1972 20.5151 28.8065C20.9058 28.4158 21.1253 27.8859 21.1253 27.3333C21.1253 26.7808 20.9058 26.2509 20.5151 25.8602C20.1244 25.4695 19.5945 25.25 19.042 25.25V29.4167Z" fill="#0D6986"/>
<path fill-rule="evenodd" clip-rule="evenodd" d="M6.70135 2.98021C9.2576 1.72917 13.4513 0.25 18.0409 0.25C22.5347 0.25 26.618 1.66771 29.1607 2.90208L29.3045 2.97188C30.0711 3.35104 30.6899 3.70938 31.1253 4L27.2774 9.625C36.1482 18.6938 43.0003 37.7469 18.0409 37.7469C-6.91845 37.7469 -0.250736 19.0396 8.69718 9.625L4.87426 4C5.16906 3.80729 5.54301 3.58333 5.98885 3.34583C6.20968 3.22708 6.44718 3.10521 6.70135 2.98125V2.98021ZM24.8045 9.55L27.8847 5.04688C25.0201 5.25312 21.6118 5.92604 18.3305 6.87604C15.9868 7.55313 13.3826 7.45 10.9711 7.00521C10.3635 6.89255 9.75996 6.75844 9.16176 6.60313L11.1618 9.54792C15.4482 11.074 20.517 11.074 24.8045 9.55ZM9.95864 11.3229C14.9743 13.2604 21.0024 13.2604 26.018 11.3208C28.1116 13.5278 29.863 16.0358 31.2139 18.7615C32.6222 21.6344 33.3889 24.5063 33.2639 26.9813C33.143 29.3698 32.2034 31.4104 30.0576 32.9271C27.8211 34.5073 24.0597 35.6635 18.0399 35.6635C12.0138 35.6635 8.23468 34.5271 5.97739 32.9646C3.81593 31.4667 2.86697 29.4542 2.7326 27.0979C2.59197 24.65 3.34197 21.7927 4.7451 18.9C6.08364 16.1417 7.95135 13.4865 9.95864 11.3229ZM8.76072 4.32917C9.59406 4.57708 10.4649 4.79271 11.3482 4.95625C13.5878 5.36875 15.8336 5.42917 17.7503 4.87396C19.9839 4.22328 22.2556 3.71153 24.5524 3.34167C22.6357 2.76458 20.3941 2.33333 18.0399 2.33333C14.4513 2.33333 11.1045 3.33438 8.76072 4.32917Z" fill="#0D6986"/>
</svg>
