<svg width="70" height="54" viewBox="0 0 70 54" fill="none" xmlns="http://www.w3.org/2000/svg">
<path d="M63.4375 5.125C64.0177 5.125 64.5741 5.35547 64.9843 5.7657C65.3945 6.17594 65.625 6.73234 65.625 7.3125V46.6875C65.625 47.2677 65.3945 47.8241 64.9843 48.2343C64.5741 48.6445 64.0177 48.875 63.4375 48.875H6.5625C5.98234 48.875 5.42594 48.6445 5.0157 48.2343C4.60547 47.8241 4.375 47.2677 4.375 46.6875V7.3125C4.375 6.73234 4.60547 6.17594 5.0157 5.7657C5.42594 5.35547 5.98234 5.125 6.5625 5.125H63.4375ZM6.5625 0.75C4.82202 0.75 3.15282 1.4414 1.92211 2.67211C0.691404 3.90282 0 5.57202 0 7.3125L0 46.6875C0 48.428 0.691404 50.0972 1.92211 51.3279C3.15282 52.5586 4.82202 53.25 6.5625 53.25H63.4375C65.178 53.25 66.8472 52.5586 68.0779 51.3279C69.3086 50.0972 70 48.428 70 46.6875V7.3125C70 5.57202 69.3086 3.90282 68.0779 2.67211C66.8472 1.4414 65.178 0.75 63.4375 0.75H6.5625Z" fill="#0D6986"/>
<path d="M30.6248 16.0625C30.6248 15.4823 30.8553 14.9259 31.2655 14.5157C31.6758 14.1055 32.2322 13.875 32.8123 13.875H54.6873C55.2675 13.875 55.8239 14.1055 56.2341 14.5157C56.6444 14.9259 56.8748 15.4823 56.8748 16.0625C56.8748 16.6427 56.6444 17.1991 56.2341 17.6093C55.8239 18.0195 55.2675 18.25 54.6873 18.25H32.8123C32.2322 18.25 31.6758 18.0195 31.2655 17.6093C30.8553 17.1991 30.6248 16.6427 30.6248 16.0625ZM24.0798 12.3263C24.2835 12.5295 24.4452 12.7708 24.5555 13.0366C24.6657 13.3024 24.7225 13.5873 24.7225 13.875C24.7225 14.1627 24.6657 14.4476 24.5555 14.7134C24.4452 14.9792 24.2835 15.2206 24.0798 15.4238L17.5173 21.9863C17.3141 22.19 17.0727 22.3516 16.807 22.4619C16.5412 22.5722 16.2563 22.6289 15.9686 22.6289C15.6809 22.6289 15.3959 22.5722 15.1302 22.4619C14.8644 22.3516 14.623 22.19 14.4198 21.9863L12.2323 19.7988C12.0289 19.5954 11.8676 19.3539 11.7575 19.0882C11.6475 18.8224 11.5908 18.5376 11.5908 18.25C11.5908 17.6691 11.8216 17.112 12.2323 16.7013C12.6431 16.2905 13.2002 16.0597 13.7811 16.0597C14.362 16.0597 14.9191 16.2905 15.3298 16.7013L15.9686 17.3444L20.9823 12.3263C21.1855 12.1225 21.4269 11.9609 21.6927 11.8506C21.9584 11.7404 22.2434 11.6836 22.5311 11.6836C22.8188 11.6836 23.1037 11.7404 23.3695 11.8506C23.6352 11.9609 23.8766 12.1225 24.0798 12.3263ZM30.6248 33.5625C30.6248 32.9823 30.8553 32.4259 31.2655 32.0157C31.6758 31.6055 32.2322 31.375 32.8123 31.375H54.6873C55.2675 31.375 55.8239 31.6055 56.2341 32.0157C56.6444 32.4259 56.8748 32.9823 56.8748 33.5625C56.8748 34.1427 56.6444 34.6991 56.2341 35.1093C55.8239 35.5195 55.2675 35.75 54.6873 35.75H32.8123C32.2322 35.75 31.6758 35.5195 31.2655 35.1093C30.8553 34.6991 30.6248 34.1427 30.6248 33.5625ZM24.0798 29.8263C24.2835 30.0295 24.4452 30.2708 24.5555 30.5366C24.6657 30.8024 24.7225 31.0873 24.7225 31.375C24.7225 31.6627 24.6657 31.9476 24.5555 32.2134C24.4452 32.4792 24.2835 32.7206 24.0798 32.9238L17.5173 39.4863C17.3141 39.69 17.0727 39.8516 16.807 39.9619C16.5412 40.0721 16.2563 40.1289 15.9686 40.1289C15.6809 40.1289 15.3959 40.0721 15.1302 39.9619C14.8644 39.8516 14.623 39.69 14.4198 39.4863L12.2323 37.2988C12.0289 37.0954 11.8676 36.8539 11.7575 36.5882C11.6475 36.3224 11.5908 36.0376 11.5908 35.75C11.5908 35.4624 11.6475 35.1776 11.7575 34.9118C11.8676 34.6461 12.0289 34.4046 12.2323 34.2013C12.4357 33.9979 12.6772 33.8365 12.9429 33.7265C13.2086 33.6164 13.4935 33.5597 13.7811 33.5597C14.0687 33.5597 14.3535 33.6164 14.6193 33.7265C14.885 33.8365 15.1264 33.9979 15.3298 34.2013L15.9686 34.8444L20.9823 29.8263C21.1855 29.6225 21.4269 29.4609 21.6927 29.3506C21.9584 29.2404 22.2434 29.1836 22.5311 29.1836C22.8188 29.1836 23.1037 29.2404 23.3695 29.3506C23.6352 29.4609 23.8766 29.6225 24.0798 29.8263Z" fill="#0D6986"/>
</svg>
