<svg width="64" height="55" viewBox="0 0 64 55" fill="none" xmlns="http://www.w3.org/2000/svg">
<path d="M41.183 24.3862C41.183 24.3862 36.4726 37.66 34.2355 39.9758C33.7076 40.5435 33.0717 41.0002 32.3652 41.3192C31.6587 41.6383 30.8957 41.8134 30.1208 41.8342C29.3459 41.855 28.5745 41.7212 27.8519 41.4405C27.1293 41.1597 26.4699 40.7378 25.9122 40.1993C25.3546 39.6609 24.9098 39.0166 24.604 38.3043C24.2982 37.5919 24.1374 36.8258 24.1311 36.0506C24.1247 35.2754 24.273 34.5067 24.5671 33.7895C24.8613 33.0722 25.2955 32.4208 25.8443 31.8733C28.0814 29.5546 41.183 24.3862 41.183 24.3862V24.3862Z" stroke="#0D6986" stroke-width="2.5" stroke-linejoin="round"/>
<path d="M10.351 13.2488L14.8835 16.9194M53.6562 53.6562C56.5038 50.8151 58.762 47.4393 60.3011 43.7229C61.8402 40.0064 62.63 36.0225 62.625 32C62.625 15.0863 48.9138 1.375 32 1.375C15.0863 1.375 1.375 15.0863 1.375 32C1.375 40.4569 4.80208 48.1131 10.3437 53.6562H53.6562ZM32 2.83333V8.66667V2.83333ZM53.649 13.2488L49.1165 16.9194L53.649 13.2488ZM59.0127 36.7148L53.3281 35.4023L59.0127 36.7148ZM4.98729 36.7148L10.6719 35.4023L4.98729 36.7148Z" stroke="#0D6986" stroke-width="2.5" stroke-linecap="round" stroke-linejoin="round"/>
</svg>
