<svg width="42" height="42" viewBox="0 0 42 42" fill="none" xmlns="http://www.w3.org/2000/svg">
<path d="M21.0003 0.166504C9.51283 0.166504 0.166992 9.51234 0.166992 20.9998V29.6311C0.166992 31.7644 2.03574 33.4998 4.33366 33.4998H6.41699C6.96953 33.4998 7.49943 33.2803 7.89013 32.8896C8.28083 32.4989 8.50033 31.969 8.50033 31.4165V20.7019C8.50033 20.1494 8.28083 19.6195 7.89013 19.2288C7.49943 18.8381 6.96953 18.6186 6.41699 18.6186H4.52533C5.68366 10.5561 12.6212 4.33317 21.0003 4.33317C29.3795 4.33317 36.317 10.5561 37.4753 18.6186H35.5837C35.0311 18.6186 34.5012 18.8381 34.1105 19.2288C33.7198 19.6195 33.5003 20.1494 33.5003 20.7019V33.4998C33.5003 35.7978 31.6316 37.6665 29.3337 37.6665H25.167V35.5832H16.8337V41.8332H29.3337C33.9295 41.8332 37.667 38.0957 37.667 33.4998C39.9649 33.4998 41.8337 31.7644 41.8337 29.6311V20.9998C41.8337 9.51234 32.4878 0.166504 21.0003 0.166504Z" fill="#0D6986"/>
</svg>
