<svg width="41" height="44" viewBox="0 0 41 44" fill="none" xmlns="http://www.w3.org/2000/svg">
<path fill-rule="evenodd" clip-rule="evenodd" d="M3.375 40.75H15.875V43.5938L16.1562 43.875H1.8125L0.25 42.3125V1.6875L1.8125 0.125H25.9375L27.0312 0.5625L37.2812 10.875L37.75 12V19.9375C36.9409 18.7372 35.8731 17.7334 34.625 17V15.75H23.6875L22.125 14.1875V3.25H3.375V40.75ZM34.625 12.625L25.25 3.25V12.625H34.625ZM36.1875 25.125V28.25H39.3125L40.875 29.8125V42.3125L39.3125 43.875H20.5625L19 42.3125V29.8125L20.5625 28.25H23.6875V25.125C23.6875 23.4674 24.346 21.8777 25.5181 20.7056C26.6902 19.5335 28.2799 18.875 29.9375 18.875C31.5951 18.875 33.1848 19.5335 34.3569 20.7056C35.529 21.8777 36.1875 23.4674 36.1875 25.125ZM27.7281 22.9156C27.142 23.5015 26.8127 24.2963 26.8125 25.125V28.25H33.0625V25.125C33.0624 24.507 32.879 23.903 32.5356 23.3892C32.1922 22.8754 31.7042 22.475 31.1333 22.2385C30.5624 22.002 29.9341 21.9402 29.328 22.0607C28.7219 22.1812 28.1652 22.4787 27.7281 22.9156ZM22.125 31.375V40.75H37.75V31.375H22.125Z" fill="#0D6986"/>
</svg>
